<svg width="1441" height="1027" viewBox="0 0 1441 1027" fill="none" xmlns="http://www.w3.org/2000/svg">
  <path d="M720.06 0.200195L720.59 421.459V605.058L720.086 1026.09M360.503 1026.09L656.16 605.058V421.459L359.566 0.200195M1080.55 0.200195L785.026 421.459V605.058L1079.67 1026.09M0.505859 769.879L462.861 605.059V421.459L0.639668 257.112M0.505859 606.526L11.835 605.058V421.459L0.505859 419.996M0.505859 615.866L76.266 605.059V421.46L0.505859 410.681M0.505859 627.275L140.697 605.058V421.459L0.505859 399.298M0.505859 641.54L205.132 605.058V421.459L0.505859 385.072M0.505859 659.876L269.564 605.058V421.459L0.505859 366.781M0.505859 684.321L333.995 605.057V421.459L0.505859 342.395M0.505859 718.549L398.432 605.059V421.459L0.505859 308.261M0.505859 855.406L527.292 605.059V421.459L0.505859 171.753M0.925126 1026.09L591.73 605.058V421.46L0.505859 1.21537M1440.68 606.526L1429.35 605.058V421.459L1440.68 419.996M1440.68 615.866L1364.92 605.059V421.46L1440.68 410.676M1440.68 627.285L1300.49 605.058V421.46L1440.68 399.292M1440.68 641.555L1236.05 605.058V421.46L1440.68 385.057M1440.68 659.901L1171.62 605.059V421.459L1440.68 366.757M1440.68 342.355L1107.2 421.458L1107.19 605.059L1440.68 684.367M1440.68 308.182L1042.76 421.46L1042.76 605.058L1440.8 718.658M1440.79 256.882L978.333 421.459L978.326 605.058L1440.68 770.019M1440.79 171.41L913.895 421.459V605.059L1440.68 855.69M1440.68 0.463987L849.459 421.46V605.058L1439.25 1026.09M1440.68 173.44H0.505859M1440.68 339.369H0.505859M1440.68 283.213H0.505859M1440.68 220.077H0.505859M1440.68 421.469H0.505859M1440.68 109.144H0.505859M1440.68 255.459H0.505859M1440.68 305.575H0.505859M1440.68 396.396H0.505859M1440.68 382.056H0.505859M1440.68 373.483H0.505859M1440.68 389.644H0.505859M1440.68 407.91H0.505859M1440.68 402.452H0.505859M1440.68 412.851H0.505859M1440.68 417.354H0.505859M1440.68 14.834H0.505859M1440.68 352.451H0.505859M1440.68 323.97H0.505859M1440.68 363.701H0.505859M1440.68 605.058H0.505859H1440.37M0.505859 559.162H1440.68M0.505859 513.266H1440.68M0.505859 467.365H1440.68M1440.68 609.183H0.505859M1440.68 613.696H0.505859M1440.68 618.656H0.505859M1440.68 624.125H0.505859M1440.68 630.195H0.505859M1440.68 636.967H0.505859M1440.68 644.575H0.505859M1440.68 653.173H0.505859M1440.68 662.975H0.505859M1440.68 674.255H0.505859M1440.68 687.376H0.505859M1440.68 702.815H0.505859M1440.68 721.261H0.505859M1440.68 743.681H0.199951M1440.68 771.51H0.505859M1440.68 806.987H0.505859M1440.68 853.759H0.505859M1440.68 918.234H0.505859M1440.68 1012.82H0.505859" stroke="#F7F7F7" stroke-width="0.4" stroke-linecap="round" stroke-linejoin="round"/>
</svg>
