<svg width="1441" height="2465" viewBox="0 0 1441 2465" fill="none" xmlns="http://www.w3.org/2000/svg">
  <path d="M720.06 0.200195L720.086 2464.55M360.503 2464.55L656.159 1453.17V1012.13L359.566 0.200195M1080.55 0.200195L785.026 1012.13V1453.17L1079.67 2464.55M0.505615 1849.1L462.861 1453.17V1012.13L0.639424 617.346M0.505615 1456.69L11.8347 1453.17V1012.13L0.505615 1008.62M0.505615 1479.13L76.2658 1453.17V1012.14L0.505615 986.244M0.505615 1506.54L140.697 1453.17V1012.13L0.505615 958.9M0.505615 1540.81L205.132 1453.17V1012.13L0.505615 924.727M0.505615 1584.85L269.563 1453.17V1012.13L0.505615 880.788M0.505615 1643.57L333.994 1453.17V1012.13L0.505615 822.21M0.505615 1725.79L398.432 1453.17V1012.13L0.505615 740.213M0.505615 2054.55L527.292 1453.17V1012.13L0.505615 412.299M0.924882 2464.55L591.729 1453.17V1012.14L0.505615 2.63884M1440.68 1456.69L1429.35 1453.17V1012.13L1440.68 1008.62M1440.68 1479.13L1364.92 1453.17V1012.14L1440.68 986.232M1440.68 1506.56L1300.49 1453.17V1012.14L1440.68 958.886M1440.68 1540.84L1236.05 1453.17V1012.14L1440.68 924.69M1440.68 1584.91L1171.62 1453.17V1012.13L1440.68 880.73M1440.68 822.114L1107.2 1012.13L1107.19 1453.17L1440.68 1643.68M1440.68 740.025L1042.76 1012.14L1042.76 1453.17L1440.8 1726.06M1440.79 616.793L978.333 1012.13L978.326 1453.17L1440.68 1849.43M1440.79 411.475L913.895 1012.13V1453.17L1440.68 2055.23M1440.68 0.833889L849.459 1012.13V1453.17L1439.25 2464.55M1440.68 416.349H0.505615M1440.68 814.94H0.505615M1440.68 680.044H0.505615M1440.68 528.38H0.505615M1440.68 1012.16H0.505615M1440.68 261.9H0.505615M1440.68 613.374H0.505615M1440.68 733.761H0.505615M1440.68 951.928H0.505615M1440.68 917.481H0.505615M1440.68 896.887H0.505615M1440.68 935.708H0.505615M1440.68 979.586H0.505615M1440.68 966.476H0.505615M1440.68 991.455H0.505615M1440.68 1002.27H0.505615M1440.68 35.3525H0.505615M1440.68 846.363H0.505615M1440.68 777.947H0.505615M1440.68 873.389H0.505615M1440.68 1453.17H0.505615H1440.37M0.505615 1342.92H1440.68M0.505615 1232.67H1440.68M0.505615 1122.41H1440.68M1440.68 1463.08H0.505615M1440.68 1473.92H0.505615M1440.68 1485.83H0.505615M1440.68 1498.97H0.505615M1440.68 1513.55H0.505615M1440.68 1529.82H0.505615M1440.68 1548.1H0.505615M1440.68 1568.75H0.505615M1440.68 1592.3H0.505615M1440.68 1619.39H0.505615M1440.68 1650.91H0.505615M1440.68 1688H0.505615M1440.68 1732.31H0.505615M1440.68 1786.16H0.199951M1440.68 1853.01H0.505615M1440.68 1938.24H0.505615M1440.68 2050.59H0.505615M1440.68 2205.47H0.505615M1440.68 2432.68H0.505615" stroke="#F7F7F7" stroke-width="0.4" stroke-linecap="round" stroke-linejoin="round"/>
</svg>
